<svg width="24" height="24" viewBox="0 0 24 24" fill="none" xmlns="http://www.w3.org/2000/svg">
<path d="M2.1001 12C2.1001 13.3001 2.35617 14.5874 2.85369 15.7885C3.35121 16.9897 4.08044 18.081 4.99974 19.0003C5.91904 19.9196 7.01041 20.6489 8.21153 21.1464C9.41265 21.6439 10.7 21.9 12.0001 21.9C13.3002 21.9 14.5875 21.6439 15.7887 21.1464C16.9898 20.6489 18.0812 19.9196 19.0005 19.0003C19.9198 18.081 20.649 16.9897 21.1465 15.7885C21.644 14.5874 21.9001 13.3001 21.9001 12C21.9001 10.6999 21.644 9.41253 21.1465 8.21141C20.649 7.01029 19.9198 5.91892 19.0005 4.99962C18.0812 4.08032 16.9898 3.35109 15.7887 2.85357C14.5875 2.35605 13.3002 2.09998 12.0001 2.09998C10.7 2.09998 9.41265 2.35605 8.21153 2.85357C7.01041 3.35109 5.91904 4.08032 4.99974 4.99962C4.08044 5.91892 3.35121 7.01029 2.85369 8.21141C2.35617 9.41253 2.1001 10.6999 2.1001 12Z" stroke="#F15B50" stroke-width="2.2" stroke-linecap="round" stroke-linejoin="round"/>
<path d="M14.75 16.455C14.3915 16.0891 13.9637 15.7985 13.4915 15.6001C13.0193 15.4016 12.5122 15.2994 12 15.2994C11.4878 15.2994 10.9807 15.4016 10.5085 15.6001C10.0363 15.7985 9.60847 16.0891 9.25 16.455" stroke="#F15B50" stroke-width="2.2" stroke-linecap="round" stroke-linejoin="round"/>
<path d="M7.6001 8.69995L9.8001 10.9" stroke="#F15B50" stroke-width="2.2" stroke-linecap="round" stroke-linejoin="round"/>
<path d="M9.8001 8.69995L7.6001 10.9" stroke="#F15B50" stroke-width="2.2" stroke-linecap="round" stroke-linejoin="round"/>
<path d="M14.2002 8.69995L16.4002 10.9" stroke="#F15B50" stroke-width="2.2" stroke-linecap="round" stroke-linejoin="round"/>
<path d="M16.4002 8.69995L14.2002 10.9" stroke="#F15B50" stroke-width="2.2" stroke-linecap="round" stroke-linejoin="round"/>
</svg>
